<?xml version="1.0" encoding="utf-8"?>
<!-- Generator: Adobe Illustrator 15.0.0, SVG Export Plug-In  -->
<!DOCTYPE svg PUBLIC "-//W3C//DTD SVG 1.1//EN" "http://www.w3.org/Graphics/SVG/1.1/DTD/svg11.dtd" [
	<!ENTITY ns_flows "http://ns.adobe.com/Flows/1.0/">
]>
<svg version="1.1"
	 xmlns="http://www.w3.org/2000/svg" xmlns:xlink="http://www.w3.org/1999/xlink" xmlns:a="http://ns.adobe.com/AdobeSVGViewerExtensions/3.0/"
	 x="0px" y="0px" width="301px" height="585px" viewBox="-0.997 0 301 585"
	 overflow="visible" enable-background="new -0.997 0 301 585" xml:space="preserve">
<defs>
</defs>
<path fill="#807F83" d="M188.071,581.682l-1.12,2.642h-1.143l4.31-9.766l4.187,9.766h-1.148l-1.098-2.642H188.071z M190.089,576.981
	l-1.592,3.731h3.151L190.089,576.981z"/>
<path fill="#807F83" d="M203.524,584.323h-1.036v-9.319h1.533c0.803,0,1.632,0.025,2.312,0.492c0.69,0.484,1.05,1.298,1.05,2.129
	c0,0.75-0.311,1.519-0.89,2.001c-0.632,0.523-1.435,0.62-2.211,0.62h-0.758V584.323z M203.524,579.28h0.691
	c1.156,0,2.132-0.344,2.132-1.681c0-1.523-1.228-1.632-2.439-1.632h-0.384V579.28z"/>
<path fill="#807F83" d="M210.739,584.323h-1.041v-9.319h1.349c1.769,0,3.409,0.472,3.409,2.57c0,1.435-0.9,2.447-2.335,2.576
	l2.968,4.173h-1.273l-2.819-4.09h-0.257V584.323z M210.739,579.318h0.323c1.171,0,2.357-0.22,2.357-1.673
	c0-1.531-1.126-1.678-2.373-1.678h-0.308V579.318z"/>
<path fill="#807F83" d="M218.459,584.323h-1.04v-9.319h1.04V584.323z"/>
<path fill="#807F83" d="M222.548,574.469l3.39,7.831l3.4-7.831l1.896,9.854h-1.065l-1.196-6.302h-0.032l-3.002,6.688l-2.991-6.688
	h-0.025l-1.198,6.302h-1.062L222.548,574.469z"/>
<path fill="#807F83" d="M234.811,581.682l-1.127,2.642h-1.136l4.305-9.766l4.191,9.766h-1.15l-1.101-2.642H234.811z
	 M236.827,576.981l-1.597,3.731h3.151L236.827,576.981z"/>
<path fill="#807F83" d="M244.086,583.36h2.578v0.963h-3.615v-9.319h1.037V583.36z"/>
<path fill="#807F83" d="M255.894,584.323h-1.04v-9.319h1.534c0.799,0,1.628,0.025,2.31,0.492c0.691,0.484,1.051,1.298,1.051,2.129
	c0,0.75-0.309,1.519-0.893,2.001c-0.63,0.523-1.432,0.62-2.212,0.62h-0.75V584.323z M255.894,579.28h0.69
	c1.151,0,2.124-0.344,2.124-1.681c0-1.523-1.224-1.632-2.434-1.632h-0.381V579.28z"/>
<path fill="#807F83" d="M262.475,581.682l-1.125,2.642h-1.14l4.305-9.766l4.191,9.766h-1.149l-1.098-2.642H262.475z M264.49,576.981
	l-1.596,3.731h3.154L264.49,576.981z"/>
<path fill="#807F83" d="M271.754,584.323h-1.042v-9.319h1.347c1.771,0,3.416,0.472,3.416,2.57c0,1.435-0.905,2.447-2.338,2.576
	l2.97,4.173h-1.278l-2.817-4.09h-0.257V584.323z M271.754,579.318h0.322c1.172,0,2.363-0.22,2.363-1.673
	c0-1.531-1.132-1.678-2.381-1.678h-0.305V579.318z"/>
<path fill="#807F83" d="M280.64,584.323h-1.039v-8.356h-2.248v-0.963h5.56v0.963h-2.272V584.323z"/>
<path fill="#807F83" d="M284.127,575.004h1.201l2.373,4.152l2.371-4.152h1.202l-3.053,5.314v4.005h-1.042v-4.005L284.127,575.004z"
	/>
<g>
	<g>
		<path fill="#48484A" d="M39.98,540.439c0,5.255,3.564,9.71,9.441,9.71c5.258,0,9.351-3.299,9.351-8.731
			c0-6.325-5.963-7.929-10.864-9.354c-4.631-1.337-8.554-2.494-12.472-5.432c-4.544-3.383-6.949-8.194-6.949-13.896
			c0-10.513,9.001-18.351,19.241-18.351c4.367,0,8.646,1.42,11.316,4.895v-3.559h9.264v17.1H57.441
			c-0.088-4.721-3.562-8.287-8.286-8.287c-4.722,0-8.644,2.947-8.644,7.934c0,6.234,5.527,7.568,10.426,8.999
			c4.895,1.327,9.528,2.665,13.627,5.79c4.101,3.292,6.324,8.013,6.324,13.363c0,11.486-8.553,19.951-20.13,19.951
			c-4.897,0-9.176-1.692-12.202-5.438v4.19h-9.624v-18.886H39.98z"/>
		<path fill="#48484A" d="M91.673,518.884c3.028-5.347,8.108-8.2,14.251-8.2c5.523,0,10.248,2.583,13.451,6.948
			c3.564,4.812,3.922,9.448,3.922,15.149v16.39h6.145v10.155h-23.16V549.17h6.145v-13.453c0-3.474,0.271-6.947-1.6-9.976
			c-1.96-3.026-5.166-4.365-8.643-4.365c-3.205,0-6.232,1.338-8.196,3.829c-2.401,2.939-2.314,5.969-2.314,9.532v14.433h6.149
			v10.155H74.655V549.17h6.15v-43.297h-6.15v-10.15h17.018V518.884z"/>
		<path fill="#48484A" d="M152.957,549.17h6.146v10.155h-23.248V549.17h6.236v-27.258h-6.151v-10.159h17.017V549.17z M154.67,507.21
			h-10.867v-11.487h10.867V507.21z"/>
		<path fill="#48484A" d="M182.481,549.17h6.234v10.155h-23.25V549.17h6.151v-27.258h-6.151v-10.159h6.151
			c-0.092-11.938,6.503-17.724,18.436-17.724v9.711c-5.521-0.089-7.836,2.931-7.571,8.012h6.234v10.159h-6.234V549.17z"/>
	</g>
</g>
<polygon fill="#48484A" points="291.535,470.759 291.531,470.759 291.531,470.745 8.362,470.759 8.362,584.315 180.113,584.323 
	180.113,574.159 18.526,574.159 18.526,480.908 281.373,480.908 281.373,549.161 213.434,549.17 213.434,521.912 221.543,521.912 
	221.543,511.753 213.434,511.753 213.434,495.723 202.566,495.723 202.566,511.753 195.088,511.753 195.088,521.912 
	202.566,521.912 202.566,559.325 291.535,559.32 "/>
<polygon fill="#FBB040" points="270.95,519.66 270.95,505.969 251.461,488.96 251.461,488.969 231.991,505.997 231.991,519.589 
	251.461,503.865 "/>
<polygon fill="#F26322" points="270.95,541.325 270.95,527.628 251.461,510.626 251.461,510.633 231.991,527.652 231.991,541.252 
	251.461,525.527 "/>
<polygon fill="#FBB040" points="299.898,236.291 299.898,130.879 149.922,0 149.922,0.03 0,131.064 0,235.736 149.922,114.714 "/>
<polygon fill="#F26322" points="299.898,403.058 299.898,297.625 149.922,166.73 149.922,166.774 0,297.811 0,402.485 
	149.922,281.459 "/>
</svg>
