<?xml version="1.0" encoding="utf-8"?>
<!-- Generator: Adobe Illustrator 15.0.0, SVG Export Plug-In . SVG Version: 6.00 Build 0)  -->
<!DOCTYPE svg PUBLIC "-//W3C//DTD SVG 1.1//EN" "http://www.w3.org/Graphics/SVG/1.1/DTD/svg11.dtd">
<svg version="1.1" id="Layer_1" xmlns="http://www.w3.org/2000/svg" xmlns:xlink="http://www.w3.org/1999/xlink" x="0px" y="0px"
   viewBox="0 0.043 431.591 841.848" enable-background="new 0 0.043 431.591 841.848" xml:space="preserve" preserveAspectRatio="xMinYMax meet">
<g id="shiftLogo">
  <path fill="#807F83" d="M270.656,837.115l-1.61,3.804h-1.645l6.202-14.057l6.026,14.057h-1.651l-1.581-3.804H270.656z
     M273.563,830.35l-2.291,5.368h4.534L273.563,830.35z"/>
  <path fill="#807F83" d="M292.896,840.916h-1.489v-13.411h2.206c1.155,0,2.347,0.036,3.327,0.708
    c0.993,0.696,1.511,1.868,1.511,3.063c0,1.079-0.447,2.188-1.28,2.88c-0.91,0.753-2.065,0.893-3.183,0.893h-1.092V840.916
    L292.896,840.916z M292.896,833.658h0.994c1.664,0,3.07-0.496,3.07-2.421c0-2.189-1.77-2.349-3.511-2.349h-0.554V833.658z"/>
  <path fill="#807F83" d="M303.279,840.916h-1.498v-13.411h1.943c2.547,0,4.905,0.679,4.905,3.698c0,2.065-1.293,3.521-3.359,3.707
    l4.271,6.006h-1.83l-4.057-5.887h-0.37v5.887H303.279z M303.279,833.713h0.467c1.684,0,3.391-0.318,3.391-2.409
    c0-2.202-1.62-2.415-3.415-2.415h-0.443L303.279,833.713L303.279,833.713z"/>
  <path fill="#807F83" d="M314.39,840.916h-1.496v-13.411h1.496V840.916z"/>
  <path fill="#807F83" d="M320.275,826.734l4.879,11.271l4.893-11.271l2.729,14.182h-1.533l-1.721-9.069h-0.045l-4.32,9.625
    l-4.306-9.625h-0.035l-1.724,9.069h-1.528L320.275,826.734z"/>
  <path fill="#807F83" d="M337.923,837.115l-1.622,3.804h-1.635l6.197-14.057l6.029,14.057h-1.653l-1.586-3.804H337.923z
     M340.824,830.35l-2.299,5.368h4.533L340.824,830.35z"/>
  <path fill="#807F83" d="M351.271,839.53h3.71v1.386h-5.202v-13.411h1.492V839.53z"/>
  <path fill="#807F83" d="M368.266,840.916h-1.498v-13.411h2.209c1.149,0,2.341,0.036,3.322,0.708
    c0.995,0.696,1.515,1.868,1.515,3.063c0,1.079-0.446,2.188-1.287,2.88c-0.905,0.753-2.061,0.893-3.182,0.893h-1.079V840.916
    L368.266,840.916z M368.266,833.658h0.991c1.655,0,3.057-0.496,3.057-2.421c0-2.189-1.762-2.349-3.504-2.349h-0.549v4.769
    L368.266,833.658L368.266,833.658z"/>
  <path fill="#807F83" d="M377.735,837.115l-1.619,3.804h-1.641l6.197-14.057l6.03,14.057h-1.653l-1.58-3.804H377.735z
     M380.635,830.35l-2.297,5.368h4.537L380.635,830.35z"/>
  <path fill="#807F83" d="M391.089,840.916h-1.5v-13.411h1.938c2.549,0,4.916,0.679,4.916,3.698c0,2.065-1.301,3.521-3.364,3.707
    l4.275,6.006h-1.84l-4.054-5.887h-0.37L391.089,840.916L391.089,840.916z M391.089,833.713h0.463c1.687,0,3.4-0.318,3.4-2.409
    c0-2.202-1.63-2.415-3.427-2.415h-0.439L391.089,833.713L391.089,833.713z"/>
  <path fill="#807F83" d="M403.878,840.916h-1.495v-12.025h-3.235v-1.386h8.002v1.386h-3.271L403.878,840.916L403.878,840.916z"/>
  <path fill="#807F83" d="M408.895,827.505h1.729l3.415,5.975l3.412-5.975h1.729l-4.394,7.647v5.764h-1.498v-5.764L408.895,827.505z"
    />
  <g>
    <g>
      <path fill="#48484A" d="M57.536,777.761c0,7.563,5.129,13.975,13.587,13.975c7.566,0,13.457-4.749,13.457-12.565
        c0-9.103-8.581-11.411-15.635-13.462c-6.664-1.925-12.311-3.589-17.948-7.818c-6.54-4.868-10.001-11.792-10.001-19.998
        c0-15.131,12.954-26.411,27.69-26.411c6.284,0,12.442,2.044,16.285,7.046v-5.123h13.332v24.61H82.665
        c-0.127-6.795-5.127-11.926-11.925-11.926c-6.796,0-12.44,4.241-12.44,11.418c0,8.972,7.954,10.892,15.005,12.951
        c7.045,1.909,13.712,3.835,19.611,8.332c5.901,4.738,9.101,11.532,9.101,19.231c0,16.529-12.309,28.712-28.97,28.712
        c-7.047,0-13.205-2.436-17.561-7.826v6.03h-13.85v-27.18h15.899V777.761z"/>
      <path fill="#48484A" d="M131.929,746.74c4.358-7.694,11.669-11.801,20.509-11.801c7.949,0,14.749,3.718,19.358,9.999
        c5.129,6.926,5.645,13.598,5.645,21.802v23.587h8.843v14.614h-33.33v-14.615h8.844v-19.36c0-5,0.39-9.998-2.303-14.357
        c-2.821-4.354-7.435-6.281-12.438-6.281c-4.612,0-8.969,1.926-11.795,5.51c-3.455,4.229-3.33,8.591-3.33,13.718v20.771h8.849
        v14.614h-33.342v-14.614h8.851v-62.31h-8.851v-14.607h24.491V746.74z"/>
      <path fill="#48484A" d="M220.125,790.326h8.845v14.614h-33.459v-14.614h8.975v-39.228h-8.852v-14.62h24.489v53.848H220.125z
         M222.59,729.94h-15.639v-16.531h15.639V729.94z"/>
      <path fill="#48484A" d="M262.613,790.326h8.971v14.614h-33.459v-14.614h8.852v-39.228h-8.852v-14.62h8.852
        c-0.134-17.181,9.358-25.508,26.533-25.508v13.976c-7.945-0.128-11.278,4.219-10.896,11.53h8.971v14.62h-8.971V790.326
        L262.613,790.326z"/>
    </g>
  </g>
  <polygon fill="#48484A" points="419.556,677.482 419.55,677.482 419.55,677.463 12.034,677.482 12.034,840.904 259.205,840.916 
    259.205,826.288 26.661,826.288 26.661,692.088 404.932,692.088 404.932,790.313 307.158,790.326 307.158,751.099 318.828,751.099 
    318.828,736.479 307.158,736.479 307.158,713.409 291.519,713.409 291.519,736.479 280.757,736.479 280.757,751.099 
    291.519,751.099 291.519,804.94 419.556,804.934  "/>
  <polygon id="yellowArrowSmall" fill="#FBB040" points="389.932,747.857 389.932,728.154 361.884,703.676 361.884,703.689 
    333.865,728.194 333.865,747.755 361.884,725.126   "/>
  <polygon id="orangeArrowSmall" fill="#F26322" points="389.932,779.036 389.932,759.324 361.884,734.856 361.884,734.866 
    333.865,759.359 333.865,778.932 361.884,756.301   "/>
</g>
<polygon id="yellowArrowLarge" fill="#FBB040" points="431.591,340.053 431.591,188.352 215.757,0 215.757,0.043 0,188.618 
  0,339.254 215.757,165.088 "/>
<polygon id="orangeArrowLarge" fill="#F26322" points="431.591,580.053 431.591,428.32 215.757,239.946 215.757,240.009 0,428.588 
  0,579.228 215.757,405.056 "/>
</svg>
